<svg width="32" height="33" viewBox="0 0 32 33" fill="none" xmlns="http://www.w3.org/2000/svg">
<path d="M20.25 20.3829C22.5972 20.3829 24.5 18.4801 24.5 16.1329C24.5 13.7857 22.5972 11.8829 20.25 11.8829C17.9028 11.8829 16 13.7857 16 16.1329C16 18.4801 17.9028 20.3829 20.25 20.3829Z" stroke="#36597D" stroke-width="2" stroke-linecap="round" stroke-linejoin="round"/>
<path d="M16 11.8829V3.38287H11.75C10.6228 3.38287 9.54183 3.83064 8.7448 4.62767C7.94777 5.4247 7.5 6.5057 7.5 7.63287C7.5 8.76004 7.94777 9.84105 8.7448 10.6381C9.54183 11.4351 10.6228 11.8829 11.75 11.8829H16Z" stroke="#36597D" stroke-width="2" stroke-linecap="round" stroke-linejoin="round"/>
<path d="M16 20.3829V11.8829H11.75C10.6228 11.8829 9.54183 12.3306 8.7448 13.1277C7.94777 13.9247 7.5 15.0057 7.5 16.1329C7.5 17.26 7.94777 18.341 8.7448 19.1381C9.54183 19.9351 10.6228 20.3829 11.75 20.3829H16Z" stroke="#36597D" stroke-width="2" stroke-linecap="round" stroke-linejoin="round"/>
<path d="M16 11.8829V3.38287H20.25C21.3772 3.38287 22.4582 3.83064 23.2552 4.62767C24.0522 5.4247 24.5 6.5057 24.5 7.63287C24.5 8.76004 24.0522 9.84105 23.2552 10.6381C22.4582 11.4351 21.3772 11.8829 20.25 11.8829H16Z" stroke="#36597D" stroke-width="2" stroke-linecap="round" stroke-linejoin="round"/>
<path d="M16 20.3829V24.6329C16 25.4734 15.7507 26.2951 15.2837 26.994C14.8168 27.693 14.153 28.2377 13.3764 28.5594C12.5998 28.881 11.7453 28.9652 10.9209 28.8012C10.0964 28.6372 9.33917 28.2324 8.7448 27.6381C8.15042 27.0437 7.74565 26.2864 7.58166 25.462C7.41768 24.6376 7.50184 23.7831 7.82351 23.0065C8.14519 22.2299 8.68992 21.5661 9.38883 21.0991C10.0877 20.6321 10.9094 20.3829 11.75 20.3829H16Z" stroke="#36597D" stroke-width="2" stroke-linecap="round" stroke-linejoin="round"/>
</svg>
